<svg width="1920" height="620" viewBox="0 0 1920 620" fill="none" xmlns="http://www.w3.org/2000/svg">
<g clip-path="url(#clip0_758_262)">
<g filter="url(#filter0_f_758_262)">
<path d="M1359.35 477.318C1359.35 560.087 1215.22 551.885 988.521 551.885C761.822 551.885 560.641 560.087 560.641 477.318C560.641 394.551 741.033 249.598 967.732 249.598C1194.43 249.598 1359.35 394.551 1359.35 477.318Z" fill="url(#paint0_linear_758_262)"/>
</g>
<g filter="url(#filter1_f_758_262)">
<path d="M1101.77 433.51C1101.77 454.271 1050.6 452.214 970.125 452.214C889.646 452.214 818.227 454.271 818.227 433.51C818.227 412.751 882.265 376.393 962.744 376.393C1043.22 376.393 1101.77 412.751 1101.77 433.51Z" fill="white"/>
</g>
<g filter="url(#filter2_f_758_262)">
<path d="M956.714 1821.72C1471 1821.72 1887.92 1503.76 1887.92 1111.54C1887.92 719.316 1471 401.357 956.714 401.357C442.423 401.357 25.5078 719.316 25.5078 1111.54C25.5078 1503.76 442.423 1821.72 956.714 1821.72Z" fill="white"/>
<path d="M956.715 401.852C1213.76 401.852 1446.46 481.311 1614.88 609.756C1783.29 738.201 1887.43 915.61 1887.43 1111.54C1887.43 1307.45 1783.29 1484.86 1614.88 1613.31C1446.46 1741.75 1213.76 1821.21 956.715 1821.21C699.669 1821.21 466.976 1741.75 298.555 1613.31C130.135 1484.86 26.0078 1307.45 26.0078 1111.54C26.0078 915.61 130.135 738.201 298.555 609.756C466.976 481.311 699.668 401.852 956.715 401.852Z" stroke="url(#paint1_linear_758_262)" stroke-width="0.99839"/>
</g>
<g filter="url(#filter3_f_758_262)">
<path d="M960.002 2102.49C1572.05 2102.49 2068.21 1724.09 2068.21 1257.31C2068.21 790.536 1572.05 412.14 960.002 412.14C347.953 412.14 -148.211 790.536 -148.211 1257.31C-148.211 1724.09 347.953 2102.49 960.002 2102.49Z" fill="#070708"/>
<path d="M960.002 412.644C1265.93 412.644 1542.87 507.212 1743.32 660.085C1943.78 812.96 2067.72 1024.12 2067.72 1257.31C2067.72 1490.52 1943.78 1701.68 1743.32 1854.55C1542.87 2007.42 1265.93 2101.99 960.002 2101.99C654.078 2101.99 377.134 2007.42 176.681 1854.55C-23.7712 1701.68 -147.711 1490.52 -147.711 1257.31C-147.711 1024.12 -23.7713 812.96 176.681 660.085C377.134 507.212 654.078 412.644 960.002 412.644Z" stroke="url(#paint2_linear_758_262)" stroke-width="0.99839"/>
</g>
<g filter="url(#filter4_f_758_262)">
<path d="M957.432 401.61C1251.31 401.61 1517.36 492.457 1709.92 639.312C1902.48 786.167 2021.54 989.01 2021.54 1213.02C2021.54 1437.04 1902.48 1639.89 1709.92 1786.74C1517.36 1933.59 1251.31 2024.43 957.432 2024.43C663.55 2024.43 397.508 1933.59 204.947 1786.74C12.3869 1639.89 -106.671 1437.04 -106.672 1213.02C-106.672 989.01 12.3868 786.167 204.947 639.312C397.508 492.457 663.55 401.61 957.432 401.61Z" stroke="url(#paint3_linear_758_262)" stroke-width="0.99839"/>
</g>
<g filter="url(#filter5_f_758_262)">
<path d="M957.432 401.61C1251.31 401.61 1517.36 492.457 1709.92 639.312C1902.48 786.167 2021.54 989.01 2021.54 1213.02C2021.54 1437.04 1902.48 1639.89 1709.92 1786.74C1517.36 1933.59 1251.31 2024.43 957.432 2024.43C663.55 2024.43 397.508 1933.59 204.947 1786.74C12.3869 1639.89 -106.671 1437.04 -106.672 1213.02C-106.672 989.01 12.3868 786.167 204.947 639.312C397.508 492.457 663.55 401.61 957.432 401.61Z" stroke="url(#paint4_linear_758_262)" stroke-width="0.99839"/>
</g>
<g filter="url(#filter6_f_758_262)">
<path d="M957.432 401.61C1251.31 401.61 1517.36 492.457 1709.92 639.312C1902.48 786.167 2021.54 989.01 2021.54 1213.02C2021.54 1437.04 1902.48 1639.89 1709.92 1786.74C1517.36 1933.59 1251.31 2024.43 957.432 2024.43C663.55 2024.43 397.508 1933.59 204.947 1786.74C12.3869 1639.89 -106.671 1437.04 -106.672 1213.02C-106.672 989.01 12.3868 786.167 204.947 639.312C397.508 492.457 663.55 401.61 957.432 401.61Z" stroke="url(#paint5_linear_758_262)" stroke-width="0.99839"/>
</g>
<g filter="url(#filter7_f_758_262)">
<path d="M957.432 401.61C1251.31 401.61 1517.36 492.457 1709.92 639.312C1902.48 786.167 2021.54 989.01 2021.54 1213.02C2021.54 1437.04 1902.48 1639.89 1709.92 1786.74C1517.36 1933.59 1251.31 2024.43 957.432 2024.43C663.55 2024.43 397.508 1933.59 204.947 1786.74C12.3869 1639.89 -106.671 1437.04 -106.672 1213.02C-106.672 989.01 12.3868 786.167 204.947 639.312C397.508 492.457 663.55 401.61 957.432 401.61Z" stroke="url(#paint6_linear_758_262)" stroke-width="0.99839"/>
</g>
<g filter="url(#filter8_f_758_262)">
<path d="M957.432 401.61C1251.31 401.61 1517.36 492.457 1709.92 639.312C1902.48 786.167 2021.54 989.01 2021.54 1213.02C2021.54 1437.04 1902.48 1639.89 1709.92 1786.74C1517.36 1933.59 1251.31 2024.43 957.432 2024.43C663.55 2024.43 397.508 1933.59 204.947 1786.74C12.3869 1639.89 -106.671 1437.04 -106.672 1213.02C-106.672 989.01 12.3868 786.167 204.947 639.312C397.508 492.457 663.55 401.61 957.432 401.61Z" stroke="url(#paint7_linear_758_262)" stroke-width="0.99839"/>
</g>
</g>
<defs>
<filter id="filter0_f_758_262" x="311.043" y="0.000228882" width="1297.91" height="801.707" filterUnits="userSpaceOnUse" color-interpolation-filters="sRGB">
<feFlood flood-opacity="0" result="BackgroundImageFix"/>
<feBlend mode="normal" in="SourceGraphic" in2="BackgroundImageFix" result="shape"/>
<feGaussianBlur stdDeviation="124.799" result="effect1_foregroundBlur_758_262"/>
</filter>
<filter id="filter1_f_758_262" x="718.388" y="276.554" width="483.217" height="275.556" filterUnits="userSpaceOnUse" color-interpolation-filters="sRGB">
<feFlood flood-opacity="0" result="BackgroundImageFix"/>
<feBlend mode="normal" in="SourceGraphic" in2="BackgroundImageFix" result="shape"/>
<feGaussianBlur stdDeviation="49.9195" result="effect1_foregroundBlur_758_262"/>
</filter>
<filter id="filter2_f_758_262" x="13.5271" y="389.372" width="1886.38" height="1444.33" filterUnits="userSpaceOnUse" color-interpolation-filters="sRGB">
<feFlood flood-opacity="0" result="BackgroundImageFix"/>
<feBlend mode="normal" in="SourceGraphic" in2="BackgroundImageFix" result="shape"/>
<feGaussianBlur stdDeviation="5.99034" result="effect1_foregroundBlur_758_262"/>
</filter>
<filter id="filter3_f_758_262" x="-160.192" y="400.159" width="2240.39" height="1714.31" filterUnits="userSpaceOnUse" color-interpolation-filters="sRGB">
<feFlood flood-opacity="0" result="BackgroundImageFix"/>
<feBlend mode="normal" in="SourceGraphic" in2="BackgroundImageFix" result="shape"/>
<feGaussianBlur stdDeviation="5.99034" result="effect1_foregroundBlur_758_262"/>
</filter>
<filter id="filter4_f_758_262" x="-119.153" y="389.131" width="2153.17" height="1647.78" filterUnits="userSpaceOnUse" color-interpolation-filters="sRGB">
<feFlood flood-opacity="0" result="BackgroundImageFix"/>
<feBlend mode="normal" in="SourceGraphic" in2="BackgroundImageFix" result="shape"/>
<feGaussianBlur stdDeviation="5.99034" result="effect1_foregroundBlur_758_262"/>
</filter>
<filter id="filter5_f_758_262" x="-119.153" y="389.131" width="2153.17" height="1647.78" filterUnits="userSpaceOnUse" color-interpolation-filters="sRGB">
<feFlood flood-opacity="0" result="BackgroundImageFix"/>
<feBlend mode="normal" in="SourceGraphic" in2="BackgroundImageFix" result="shape"/>
<feGaussianBlur stdDeviation="5.99034" result="effect1_foregroundBlur_758_262"/>
</filter>
<filter id="filter6_f_758_262" x="-115.159" y="393.124" width="2145.19" height="1639.8" filterUnits="userSpaceOnUse" color-interpolation-filters="sRGB">
<feFlood flood-opacity="0" result="BackgroundImageFix"/>
<feBlend mode="normal" in="SourceGraphic" in2="BackgroundImageFix" result="shape"/>
<feGaussianBlur stdDeviation="3.99356" result="effect1_foregroundBlur_758_262"/>
</filter>
<filter id="filter7_f_758_262" x="-111.165" y="397.118" width="2137.2" height="1631.81" filterUnits="userSpaceOnUse" color-interpolation-filters="sRGB">
<feFlood flood-opacity="0" result="BackgroundImageFix"/>
<feBlend mode="normal" in="SourceGraphic" in2="BackgroundImageFix" result="shape"/>
<feGaussianBlur stdDeviation="1.99678" result="effect1_foregroundBlur_758_262"/>
</filter>
<filter id="filter8_f_758_262" x="-111.165" y="397.118" width="2137.2" height="1631.81" filterUnits="userSpaceOnUse" color-interpolation-filters="sRGB">
<feFlood flood-opacity="0" result="BackgroundImageFix"/>
<feBlend mode="normal" in="SourceGraphic" in2="BackgroundImageFix" result="shape"/>
<feGaussianBlur stdDeviation="1.99678" result="effect1_foregroundBlur_758_262"/>
</filter>
<linearGradient id="paint0_linear_758_262" x1="959.997" y1="249.598" x2="959.997" y2="552.11" gradientUnits="userSpaceOnUse">
<stop stop-color="#4A4A4A"/>
<stop offset="1" stop-color="#2F2F2F"/>
</linearGradient>
<linearGradient id="paint1_linear_758_262" x1="956.715" y1="401.352" x2="956.715" y2="581.037" gradientUnits="userSpaceOnUse">
<stop stop-color="white"/>
<stop offset="1" stop-opacity="0"/>
</linearGradient>
<linearGradient id="paint2_linear_758_262" x1="960.002" y1="412.144" x2="960.002" y2="625.982" gradientUnits="userSpaceOnUse">
<stop stop-color="white"/>
<stop offset="1" stop-opacity="0"/>
</linearGradient>
<linearGradient id="paint3_linear_758_262" x1="957.432" y1="401.111" x2="957.001" y2="619.31" gradientUnits="userSpaceOnUse">
<stop stop-color="white"/>
<stop offset="1" stop-opacity="0"/>
</linearGradient>
<linearGradient id="paint4_linear_758_262" x1="957.432" y1="401.111" x2="957.002" y2="498.006" gradientUnits="userSpaceOnUse">
<stop stop-color="white"/>
<stop offset="1" stop-opacity="0"/>
</linearGradient>
<linearGradient id="paint5_linear_758_262" x1="957.432" y1="401.111" x2="957.002" y2="481.532" gradientUnits="userSpaceOnUse">
<stop stop-color="white"/>
<stop offset="1" stop-opacity="0"/>
</linearGradient>
<linearGradient id="paint6_linear_758_262" x1="957.432" y1="401.111" x2="957.002" y2="462.563" gradientUnits="userSpaceOnUse">
<stop stop-color="white"/>
<stop offset="1" stop-opacity="0"/>
</linearGradient>
<linearGradient id="paint7_linear_758_262" x1="957.432" y1="401.111" x2="957.002" y2="450.582" gradientUnits="userSpaceOnUse">
<stop stop-color="white"/>
<stop offset="1" stop-opacity="0"/>
</linearGradient>
<clipPath id="clip0_758_262">
<rect width="1920" height="620" fill="white"/>
</clipPath>
</defs>
</svg>
